<?xml version="1.0" standalone="no"?>
<!DOCTYPE svg PUBLIC "-//W3C//DTD SVG 20010904//EN"
 "http://www.w3.org/TR/2001/REC-SVG-20010904/DTD/svg10.dtd">
<svg version="1.0" xmlns="http://www.w3.org/2000/svg"
 width="500.000000pt" height="500.000000pt" viewBox="0 0 500.000000 500.000000"
 preserveAspectRatio="xMidYMid meet">
<metadata>
Created by potrace 1.14, written by Peter Selinger 2001-2017
</metadata>
<g transform="translate(0.000000,500.000000) scale(0.100000,-0.100000)"
fill="#000000" stroke="none">
<path d="M2680 4520 c-8 -5 -17 -7 -21 -4 -4 2 -11 -10 -15 -28 -4 -18 -8 -35
-9 -38 -1 -3 -7 -25 -15 -50 -7 -25 -15 -54 -17 -65 -2 -11 -23 -94 -48 -185
-46 -172 -115 -434 -121 -460 -2 -8 -21 -82 -44 -165 -22 -82 -42 -159 -45
-170 -11 -50 -27 -111 -33 -125 -7 -18 -6 -16 -17 -65 -4 -22 -10 -44 -11 -50
-2 -5 -24 -86 -49 -180 -25 -93 -57 -213 -71 -265 -14 -52 -27 -102 -29 -110
-2 -8 -22 -87 -45 -175 -23 -88 -44 -171 -47 -184 -2 -14 -6 -28 -9 -32 -7
-12 19 -16 49 -8 15 4 27 4 27 0 0 -12 73 -8 83 4 6 7 10 7 13 0 4 -11 95 -12
112 -2 5 4 12 17 15 29 6 29 52 204 122 465 30 111 57 213 59 225 3 13 12 48
21 78 9 30 17 62 19 70 2 8 14 51 25 95 12 44 24 88 26 98 2 10 26 102 54 205
27 103 52 198 55 212 3 14 30 117 61 230 31 113 57 214 60 225 2 11 4 20 5 20
1 0 3 7 5 15 1 8 8 35 15 60 7 25 14 52 15 60 2 8 18 70 36 138 18 67 30 125
26 128 -9 9 -71 10 -84 1 -6 -4 -14 -3 -18 3 -5 8 -10 8 -20 0 -10 -8 -15 -8
-20 0 -5 8 -10 8 -20 0 -10 -8 -15 -8 -20 0 -5 8 -11 8 -21 -1 -10 -8 -18 -8
-27 -1 -8 7 -18 7 -27 2z"/>
<path d="M2075 4100 c-19 -8 -55 -21 -65 -25 -3 -1 -14 -5 -25 -9 -61 -23 -75
-28 -80 -27 -3 1 -18 -5 -34 -13 -16 -9 -31 -12 -35 -9 -3 4 -6 0 -6 -7 0 -7
-3 -11 -6 -7 -4 3 -24 -3 -45 -14 -22 -11 -39 -17 -39 -13 0 4 -7 1 -15 -6 -8
-7 -15 -9 -15 -5 0 4 -6 2 -13 -4 -8 -6 -17 -8 -20 -4 -4 3 -7 1 -7 -6 0 -8
-7 -10 -20 -6 -11 4 -20 2 -20 -4 0 -9 -21 -18 -62 -27 -5 -1 -10 -3 -13 -4
-3 -1 -8 -3 -12 -5 -5 -1 -21 -7 -38 -14 -16 -6 -41 -15 -55 -20 -14 -5 -34
-13 -45 -17 -11 -4 -24 -8 -30 -9 -5 0 -17 -5 -25 -10 -8 -5 -19 -10 -25 -11
-5 -1 -23 -8 -40 -15 -16 -6 -37 -13 -46 -15 -8 -2 -35 -12 -59 -23 -24 -11
-48 -17 -52 -15 -4 3 -8 0 -8 -7 0 -7 -3 -10 -6 -7 -3 4 -36 -6 -74 -22 -38
-16 -71 -26 -74 -22 -3 3 -6 0 -6 -6 0 -7 -3 -11 -7 -10 -9 2 -47 -8 -78 -22
-40 -17 -60 -23 -67 -22 -10 3 -11 -2 -13 -150 -2 -131 2 -147 46 -156 14 -3
354 -126 399 -145 14 -5 33 -12 43 -14 10 -1 31 -10 48 -18 16 -9 29 -13 29
-10 0 3 10 0 23 -7 12 -7 25 -11 30 -10 4 1 7 -3 7 -10 0 -6 3 -9 6 -5 4 3 21
0 39 -8 19 -7 36 -11 39 -7 3 3 6 0 6 -7 0 -6 6 -11 13 -10 6 1 26 -3 42 -10
17 -7 37 -14 46 -16 9 -2 25 -8 35 -14 11 -5 53 -22 94 -36 41 -15 82 -29 90
-32 8 -4 18 -7 23 -8 4 -2 10 -4 15 -5 4 -1 10 -2 15 -1 4 0 7 -4 7 -9 0 -5 3
-9 8 -8 4 2 36 -8 72 -21 78 -28 89 -31 94 -28 1 1 10 -4 19 -11 23 -20 26 1
25 175 l0 152 -29 10 c-16 6 -42 16 -57 21 -16 6 -38 12 -50 13 -12 1 -22 5
-22 10 0 4 -4 6 -8 3 -5 -3 -21 2 -36 9 -16 8 -32 13 -36 10 -5 -3 -11 -1 -15
5 -4 6 -11 8 -16 5 -5 -4 -9 -1 -9 4 0 6 -7 11 -15 11 -13 0 -197 56 -255 78
-8 3 -17 6 -20 7 -3 1 -12 4 -20 8 -8 3 -60 20 -115 38 -55 17 -105 36 -111
40 -6 5 -14 6 -18 2 -4 -4 -4 0 0 10 3 9 11 17 18 18 17 1 36 6 116 34 41 15
80 28 85 29 10 3 24 8 63 23 9 3 19 7 22 7 12 2 97 29 115 36 28 12 236 80
259 85 38 9 91 28 100 35 5 5 14 6 21 3 8 -2 18 4 23 14 12 22 16 319 5 326
-4 2 -17 1 -28 -3z"/>
<path d="M2903 3951 c0 -159 6 -195 32 -185 8 4 15 1 15 -5 0 -6 3 -10 8 -9 4
1 27 -5 52 -12 58 -17 53 -16 70 -23 22 -8 149 -48 163 -51 7 -2 21 -6 32 -10
11 -5 37 -14 58 -22 20 -8 37 -11 37 -8 0 4 6 2 13 -3 13 -11 67 -27 80 -25 4
1 7 -3 7 -10 0 -6 3 -9 6 -5 4 3 22 0 40 -8 19 -8 38 -15 42 -16 19 -4 30 -8
73 -23 26 -9 57 -19 69 -21 24 -5 47 -21 39 -29 -2 -2 -13 -6 -24 -8 -11 -1
-22 -6 -25 -10 -3 -4 -17 -10 -30 -12 -14 -2 -25 -5 -25 -6 0 -1 -7 -3 -15 -5
-8 -2 -28 -8 -45 -15 -16 -6 -32 -12 -35 -12 -3 -1 -57 -19 -120 -40 -63 -22
-122 -41 -130 -43 -8 -1 -44 -13 -80 -25 -36 -12 -72 -24 -80 -26 -8 -2 -42
-13 -75 -25 -33 -11 -64 -22 -70 -23 -5 -1 -26 -8 -46 -14 l-36 -13 -1 -147
c0 -81 1 -157 4 -169 4 -24 6 -23 79 8 11 5 29 10 40 12 11 2 30 8 42 15 12 7
29 12 37 12 9 0 16 5 16 12 0 6 3 9 6 5 6 -6 71 15 108 35 10 5 26 11 35 13 9
2 39 12 67 23 29 12 55 18 58 15 3 -4 6 -1 6 5 0 7 6 12 14 12 12 0 156 52
216 77 23 10 23 10 58 18 17 4 32 12 32 17 0 5 4 7 8 4 5 -3 19 1 33 8 13 7
26 13 29 13 3 1 18 6 33 12 16 6 35 11 43 11 8 0 14 5 14 11 0 5 4 8 9 4 5 -3
25 1 43 9 35 15 60 24 68 23 3 0 16 6 30 14 14 8 30 14 35 15 6 0 24 7 40 14
17 7 35 14 40 15 6 2 17 4 25 6 41 10 47 34 46 166 -1 125 -1 127 -26 140 -32
17 -80 35 -104 40 -11 2 -25 8 -33 14 -7 6 -13 8 -13 4 0 -4 -6 -2 -13 4 -8 6
-22 12 -33 14 -10 2 -26 7 -34 10 -8 4 -42 16 -75 28 -33 12 -71 26 -85 32
-14 6 -28 11 -32 12 -5 2 -9 3 -10 5 -2 1 -10 3 -18 5 -29 7 -90 31 -96 38 -4
4 -16 7 -26 7 -10 0 -26 4 -36 9 -29 15 -65 29 -107 42 -22 7 -44 17 -49 21
-6 4 -20 8 -33 8 -13 0 -23 5 -23 12 0 6 -2 9 -5 6 -3 -3 -31 5 -62 18 -32 12
-61 20 -65 18 -4 -3 -8 -1 -8 4 0 5 -6 9 -12 9 -7 1 -41 12 -75 26 -34 14 -64
22 -67 19 -3 -3 -6 1 -6 8 0 7 -3 11 -6 7 -4 -3 -19 0 -35 9 -16 8 -29 12 -29
10 0 -3 -12 1 -27 9 -15 8 -30 12 -35 9 -4 -3 -8 -1 -8 4 0 5 -6 9 -13 9 -10
0 -13 -34 -14 -156z"/>
<path d="M3040 2515 c-4 -11 -3 -25 2 -32 5 -7 5 -13 -1 -17 -10 -7 -10 -24 2
-43 4 -6 3 -14 -3 -18 -6 -4 -7 -12 -1 -22 5 -9 5 -29 0 -45 -4 -17 -4 -26 2
-23 5 4 5 -3 0 -17 -5 -15 -5 -31 0 -41 7 -11 6 -17 0 -17 -7 0 -7 -8 -1 -25
5 -14 6 -25 2 -25 -9 0 -8 -42 2 -58 4 -6 2 -21 -4 -32 -8 -14 -8 -20 0 -20 8
0 8 -6 0 -20 -8 -14 -8 -20 0 -20 8 0 8 -6 0 -20 -8 -14 -8 -20 0 -20 8 0 8
-6 0 -20 -7 -14 -8 -26 0 -39 7 -14 7 -22 0 -26 -8 -5 -8 -11 0 -20 8 -9 8
-15 0 -20 -7 -4 -7 -12 0 -26 6 -10 7 -19 3 -19 -10 0 -10 -41 0 -57 4 -7 3
-14 -3 -18 -7 -4 -7 -12 0 -26 6 -11 7 -19 1 -19 -5 0 -6 -14 -1 -35 10 -44
-4 -54 -20 -15 -7 17 -16 30 -21 30 -4 0 -10 8 -14 18 -11 36 -165 181 -165
157 0 -5 -8 -1 -18 8 -10 10 -22 14 -25 10 -4 -3 -7 -1 -7 6 0 7 -6 11 -14 8
-7 -3 -17 -2 -22 3 -5 4 -27 11 -49 15 -55 10 -288 14 -300 5 -9 -7 -76 -20
-117 -23 -10 -1 -18 -4 -18 -8 0 -4 -17 -10 -37 -14 -21 -3 -48 -13 -60 -21
-13 -8 -23 -12 -23 -10 0 9 -197 -94 -211 -110 -10 -12 -10 -17 0 -23 7 -5 13
-12 13 -17 1 -13 20 -55 37 -83 9 -13 16 -31 17 -39 2 -8 6 -18 11 -21 4 -3
17 -23 28 -43 11 -21 23 -38 27 -38 15 0 58 24 58 32 0 4 8 8 18 8 10 0 22 4
28 9 14 14 135 63 169 68 17 3 37 8 45 12 29 15 197 1 209 -17 3 -5 16 -12 29
-16 12 -4 22 -11 22 -15 0 -4 8 -16 18 -27 22 -24 54 -102 47 -114 -3 -5 -1
-18 5 -29 8 -17 6 -22 -11 -31 -11 -7 -27 -9 -34 -6 -7 2 -16 2 -19 -1 -3 -3
-22 -8 -43 -10 -62 -7 -77 -10 -103 -17 -14 -3 -38 -8 -55 -10 -16 -2 -37 -6
-45 -9 -8 -4 -26 -9 -40 -11 -71 -13 -241 -82 -258 -104 -7 -9 -16 -16 -20
-16 -16 3 -37 -11 -82 -56 -45 -45 -121 -160 -105 -160 4 0 2 -6 -4 -14 -15
-18 -22 -66 -24 -154 -1 -80 7 -72 -82 -76 -16 0 -33 4 -37 9 -5 7 -8 7 -8 0
0 -8 -241 -12 -422 -6 -22 1 -26 5 -23 26 1 14 -2 25 -7 25 -5 0 -6 6 -2 12
11 18 12 48 2 48 -5 0 -6 6 -2 12 11 18 12 48 2 48 -5 0 -6 6 -2 12 11 18 12
48 2 48 -5 0 -6 6 -2 12 11 18 12 48 2 48 -5 0 -6 6 -2 12 11 18 12 48 2 48
-5 0 -4 8 1 19 6 10 8 21 4 24 -6 7 -6 75 0 120 2 15 0 30 -5 33 -5 3 -5 11 0
17 4 7 7 23 5 37 -5 35 -5 41 0 73 2 15 0 30 -5 33 -5 3 -5 11 0 17 4 7 7 23
5 37 -5 35 -5 41 0 73 2 15 0 30 -5 33 -5 3 -5 11 0 17 4 7 7 23 5 37 -5 35
-5 41 0 73 2 15 0 30 -5 33 -5 3 -5 11 0 17 4 7 7 23 5 37 -5 35 -5 41 0 73 2
15 0 30 -5 33 -5 3 -5 11 0 17 4 7 7 23 5 37 -5 35 -5 41 0 73 2 15 0 30 -5
33 -5 3 -5 11 0 17 4 7 7 23 5 37 -5 35 -5 41 0 73 2 15 0 30 -5 33 -5 3 -5
11 -1 17 10 15 10 68 0 85 -5 6 -4 12 2 12 7 0 7 9 0 28 l-9 27 -99 -1 c-54
-1 -104 -4 -110 -8 -6 -4 -11 -3 -11 2 0 12 -83 9 -92 -3 -5 -6 -8 -6 -8 2 0
6 -8 10 -17 8 -10 -2 -23 -4 -29 -4 -9 -1 -12 -257 -12 -1006 l0 -1006 615 1
c467 1 618 -2 629 -11 8 -6 17 -9 21 -6 3 4 15 2 25 -4 21 -11 198 -19 198 -9
0 3 12 7 28 8 15 1 38 7 52 13 14 6 41 18 60 27 35 15 130 71 140 82 3 3 22
18 43 33 l37 28 10 -26 c6 -15 8 -30 5 -35 -3 -5 -2 -11 3 -14 4 -2 9 -19 10
-38 2 -18 6 -36 10 -40 9 -9 548 -12 561 -3 5 2 11 17 14 32 3 16 8 44 12 63
9 48 23 60 41 36 8 -11 14 -17 14 -13 0 3 17 -10 38 -28 20 -19 43 -35 51 -35
8 0 11 -3 8 -7 -10 -10 119 -64 183 -78 61 -12 113 -12 180 0 52 10 45 8 87
24 18 7 35 12 39 11 4 -1 10 2 13 7 3 5 27 21 54 36 26 15 47 32 47 37 0 6 6
10 13 10 24 0 163 171 149 184 -3 3 0 6 6 6 7 0 12 7 12 15 0 8 5 15 12 15 6
0 8 3 5 6 -3 4 -1 16 5 28 7 11 13 26 14 31 1 6 8 24 15 40 6 17 13 35 14 40
2 6 7 28 13 50 33 122 37 394 7 525 -3 14 -7 36 -9 50 -3 14 -13 46 -25 73
-11 26 -21 48 -21 50 -1 15 -26 67 -32 67 -4 0 -8 5 -8 11 0 33 -130 166 -192
196 -21 10 -38 21 -38 25 0 3 -15 10 -32 13 -18 4 -37 10 -43 13 -16 10 -46
13 -150 16 -85 2 -110 -1 -170 -22 -38 -14 -73 -30 -77 -36 -4 -6 -8 -8 -8 -3
0 7 -67 -33 -97 -58 -7 -5 -19 -16 -27 -22 -24 -20 -41 -15 -41 12 0 14 4 25
9 25 5 0 3 6 -3 13 -6 8 -7 17 -3 21 12 12 10 666 -2 674 -6 4 -91 7 -190 7
-169 0 -179 -1 -186 -20z m750 -925 c0 -3 9 -6 20 -7 51 -4 144 -102 157 -165
3 -16 9 -28 13 -28 4 0 6 -10 6 -22 -1 -13 0 -27 3 -33 3 -5 6 -18 7 -27 1
-10 3 -19 4 -20 8 -10 5 -58 -4 -58 -8 0 -8 -2 0 -8 11 -7 15 -192 4 -192 -3
0 -5 -10 -6 -22 -2 -62 -30 -147 -68 -204 -38 -58 -52 -74 -65 -74 -6 0 -11
-3 -11 -7 0 -5 -15 -17 -33 -27 -38 -23 -175 -32 -222 -15 -61 23 -93 39 -105
54 -7 8 -16 13 -20 10 -4 -2 -16 5 -26 16 -17 18 -18 45 -19 347 l-1 327 54
53 c30 28 59 52 65 52 6 0 18 6 26 14 28 24 103 44 163 42 32 0 58 -3 58 -6z
m-1085 -640 l1 -145 -55 -52 c-30 -29 -58 -50 -63 -47 -4 3 -11 -1 -14 -10 -3
-8 -20 -18 -37 -22 -18 -3 -36 -9 -42 -13 -16 -10 -145 -9 -145 1 0 5 -4 7 -8
4 -14 -8 -81 42 -96 73 -21 39 -22 128 -3 147 4 4 7 16 7 26 0 11 4 17 9 13 5
-3 12 4 16 15 3 11 10 20 14 20 4 0 16 8 27 18 37 33 191 94 244 97 8 0 21 4
28 8 6 5 15 6 20 4 4 -3 16 -1 27 3 10 4 30 6 44 5 l25 -1 1 -144z"/>
</g>
</svg>
